<svg width="149" height="84" viewBox="0 0 149 84" fill="none" xmlns="http://www.w3.org/2000/svg">
<path d="M24.264 71.12C24.264 73.3387 24.4347 74.96 24.776 75.984C25.1173 76.9227 25.7573 77.5627 26.696 77.904C27.72 78.2453 29.3413 78.416 31.56 78.416H35.912C42.568 78.416 48.328 76.6667 53.192 73.168C58.056 69.584 61.2987 64.7627 62.92 58.704C62.92 58.5333 63.0907 58.448 63.432 58.448C63.6027 58.448 63.7733 58.5333 63.944 58.704C64.2 58.7893 64.328 58.8747 64.328 58.96C63.56 67.408 63.176 74.448 63.176 80.08C63.176 80.7627 63.0053 81.2747 62.664 81.616C62.408 81.872 61.9387 82 61.256 82H0.84C0.669333 82 0.584 81.744 0.584 81.232C0.584 80.72 0.669333 80.464 0.84 80.464C3.57067 80.464 5.53333 80.2507 6.728 79.824C8.008 79.3973 8.86133 78.5867 9.288 77.392C9.8 76.112 10.056 74.192 10.056 71.632V12.368C10.056 9.808 9.8 7.93067 9.288 6.736C8.86133 5.54133 8.008 4.73066 6.728 4.30399C5.448 3.79199 3.48533 3.536 0.84 3.536C0.669333 3.536 0.584 3.28 0.584 2.768C0.584 2.256 0.669333 2 0.84 2L7.368 2.128C11.2933 2.29866 14.536 2.384 17.096 2.384C19.656 2.384 22.8987 2.29866 26.824 2.128L33.352 2C33.608 2 33.736 2.256 33.736 2.768C33.736 3.28 33.608 3.536 33.352 3.536C30.7067 3.536 28.744 3.79199 27.464 4.30399C26.184 4.73066 25.3307 5.58399 24.904 6.864C24.4773 8.05866 24.264 9.936 24.264 12.496V71.12ZM121.406 0.591995C125.417 0.591995 129.47 0.933329 133.566 1.616C137.747 2.21333 141.075 3.02399 143.55 4.048C144.318 4.304 144.787 4.64533 144.958 5.072C145.214 5.41333 145.385 6.05333 145.47 6.992L147.134 24.784C147.134 25.04 146.921 25.2107 146.494 25.296C146.067 25.3813 145.769 25.2533 145.598 24.912C143.209 17.9147 139.795 12.5813 135.358 8.91199C130.921 5.15733 125.587 3.28 119.358 3.28C113.555 3.28 108.35 4.85867 103.742 8.016C99.2193 11.088 95.6353 15.5253 92.99 21.328C90.43 27.1307 89.15 33.9147 89.15 41.68C89.15 49.5307 90.4727 56.4427 93.118 62.416C95.8487 68.304 99.5607 72.8693 104.254 76.112C109.033 79.2693 114.494 80.848 120.638 80.848C126.526 80.848 131.475 79.2693 135.486 76.112C139.497 72.8693 143.294 67.5787 146.878 60.24C146.963 59.984 147.219 59.8987 147.646 59.984C148.073 60.0693 148.286 60.24 148.286 60.496L146.366 76.368C146.195 77.392 146.025 78.0747 145.854 78.416C145.683 78.672 145.214 78.9707 144.446 79.312C136.595 82.128 128.659 83.536 120.638 83.536C111.507 83.536 103.315 81.8293 96.062 78.416C88.894 74.9173 83.262 70.0533 79.166 63.824C75.07 57.5947 73.022 50.512 73.022 42.576C73.022 34.4693 75.1127 27.2587 79.294 20.944C83.5607 14.544 89.3633 9.55199 96.702 5.96799C104.126 2.384 112.361 0.591995 121.406 0.591995Z" fill="#BA4522"/>
</svg>
