<?xml version="1.0" standalone="no"?>
<!DOCTYPE svg PUBLIC "-//W3C//DTD SVG 20010904//EN"
 "http://www.w3.org/TR/2001/REC-SVG-20010904/DTD/svg10.dtd">
<svg version="1.0" xmlns="http://www.w3.org/2000/svg"
 width="1192.000000pt" height="1192.000000pt" viewBox="0 0 1192.000000 1192.000000"
 preserveAspectRatio="xMidYMid meet">
<metadata>
Created by potrace 1.14, written by Peter Selinger 2001-2017
</metadata>
<g transform="translate(0.000000,1192.000000) scale(0.100000,-0.100000)"
fill="#000000" stroke="none">
<path d="M9687 9274 c-1 -1 -83 -4 -182 -8 -99 -3 -200 -8 -225 -11 -25 -3
-70 -7 -100 -10 -30 -2 -71 -7 -90 -9 -19 -3 -57 -8 -85 -12 -27 -3 -57 -8
-66 -9 -9 -2 -32 -6 -50 -9 -82 -13 -248 -48 -342 -72 -56 -14 -106 -27 -112
-28 -71 -17 -367 -115 -379 -127 -6 -5 -16 -9 -24 -9 -12 0 -102 -38 -144 -61
-10 -5 -25 -9 -33 -9 -8 0 -15 -4 -15 -10 0 -5 -6 -10 -13 -10 -7 0 -37 -11
-65 -25 -29 -14 -54 -24 -55 -23 -2 2 -10 -2 -18 -9 -8 -6 -48 -29 -89 -51
-147 -77 -312 -181 -460 -291 -233 -173 -408 -342 -633 -610 -47 -57 -182
-253 -228 -331 -28 -47 -55 -92 -60 -100 -29 -46 -137 -280 -171 -370 -44
-115 -95 -276 -104 -323 -3 -17 -7 -33 -9 -37 -2 -3 -6 -17 -9 -31 -2 -13 -10
-49 -16 -79 -6 -30 -13 -64 -15 -75 -5 -21 -13 -76 -21 -140 -3 -22 -7 -51 -9
-65 -19 -102 -26 -508 -12 -675 13 -165 19 -206 54 -395 27 -147 99 -387 158
-525 77 -180 145 -318 186 -377 11 -14 19 -29 19 -32 0 -17 194 -292 280 -396
56 -68 356 -370 368 -370 6 0 12 -3 14 -8 5 -11 117 -103 193 -159 87 -62 252
-173 259 -173 3 0 34 -17 68 -38 208 -126 590 -286 853 -357 80 -22 215 -56
240 -61 11 -2 62 -13 113 -24 51 -11 96 -19 100 -19 4 1 10 0 15 -1 13 -4 21
-6 82 -15 33 -4 67 -9 75 -11 8 -1 40 -5 70 -8 30 -3 75 -8 100 -11 267 -31
703 -35 989 -10 136 12 177 16 216 21 22 4 56 8 75 10 35 3 98 13 135 20 11 3
38 7 60 9 22 3 81 14 130 25 50 11 101 22 115 24 14 3 45 10 70 16 25 6 54 13
65 15 17 3 78 18 125 31 8 2 47 13 85 24 39 12 77 23 85 25 8 2 65 19 125 39
61 19 113 36 117 36 16 2 124 53 148 70 21 15 43 60 55 110 4 17 18 110 21
136 1 18 7 67 13 110 6 44 13 102 16 129 4 28 8 61 11 75 2 14 6 50 9 80 8 87
13 133 19 165 3 17 8 55 11 85 3 30 7 71 10 90 3 19 7 58 10 85 3 28 8 61 10
75 2 14 7 56 10 95 4 38 8 72 10 75 1 3 6 42 10 88 l7 82 -33 14 c-18 8 -41
11 -52 7 -11 -4 -51 -69 -98 -161 -44 -85 -88 -168 -99 -185 -10 -16 -27 -46
-38 -65 -26 -47 -114 -192 -124 -205 -21 -26 -79 -112 -85 -125 -4 -8 -11 -19
-15 -25 -5 -5 -36 -46 -69 -90 -34 -44 -64 -82 -68 -85 -3 -3 -18 -21 -33 -41
-58 -79 -263 -275 -369 -352 -50 -38 -79 -57 -85 -57 -3 0 -19 -9 -35 -21 -27
-19 -202 -109 -212 -109 -2 0 -22 -7 -43 -16 -22 -9 -40 -16 -41 -15 -2 0 -27
-8 -55 -19 -56 -20 -153 -46 -203 -54 -16 -2 -30 -5 -30 -6 0 -1 -9 -3 -20 -5
-96 -13 -146 -19 -177 -19 -21 -1 -38 -3 -38 -6 0 -15 -443 -1 -540 16 -14 2
-43 7 -65 9 -35 4 -102 18 -215 45 -138 32 -299 94 -465 177 -91 46 -293 174
-339 216 -14 12 -40 33 -58 47 -112 85 -413 425 -466 527 -7 12 -18 28 -24 35
-13 13 -27 37 -55 88 -8 14 -27 48 -44 75 -27 47 -104 201 -143 288 -37 82
-102 265 -106 302 -1 6 -6 16 -12 23 -6 6 -7 12 -4 12 4 0 2 10 -5 21 -6 12
-13 31 -15 43 -1 11 -15 66 -29 121 -27 108 -33 134 -40 180 -3 17 -7 41 -10
55 -3 14 -8 41 -11 60 -3 19 -7 46 -10 60 -5 32 -12 80 -20 150 -3 30 -7 69
-9 85 -19 161 -25 644 -11 845 12 168 14 179 31 300 2 14 7 45 10 70 16 115
39 234 67 345 11 44 22 87 23 95 2 8 4 15 5 15 1 0 3 8 5 18 15 79 161 466
186 492 5 5 9 17 9 26 0 10 3 19 8 21 4 2 20 30 37 63 46 93 190 322 240 382
5 7 15 18 20 25 96 123 255 286 370 379 72 58 222 161 285 195 19 10 37 21 40
24 10 10 104 55 108 52 3 -2 8 0 11 5 6 8 45 26 116 54 17 7 32 13 35 13 3 1
10 4 15 7 13 8 201 65 242 74 10 2 50 10 88 18 241 51 586 56 830 13 94 -17
241 -53 270 -66 11 -5 43 -16 70 -25 48 -15 244 -104 255 -115 3 -3 18 -12 34
-20 56 -29 66 -35 66 -42 0 -5 5 -8 11 -8 11 0 183 -126 224 -164 106 -100
178 -172 225 -227 30 -35 58 -65 63 -67 4 -2 7 -10 7 -18 0 -8 4 -14 9 -14 7
0 122 -165 178 -255 47 -76 190 -354 198 -385 1 -3 6 -16 12 -30 42 -99 83
-206 83 -215 0 -23 26 -64 46 -74 12 -5 33 -7 45 -4 46 11 50 21 43 102 -3 42
-8 94 -9 116 -2 22 -6 63 -9 90 -3 28 -8 79 -11 115 -9 99 -14 150 -20 210 -6
60 -11 120 -20 220 -5 64 -9 106 -20 205 -3 28 -7 79 -10 115 -3 36 -7 83 -10
105 -2 22 -7 72 -10 110 -10 118 -22 179 -40 215 -15 29 -49 70 -59 70 -3 0
-25 8 -49 19 -195 87 -553 172 -912 217 -22 3 -51 7 -65 10 -14 3 -47 7 -75
10 -27 2 -64 6 -81 9 -123 18 -665 49 -677 39z"/>
<path d="M67 9157 c-22 -16 -28 -93 -10 -109 7 -6 57 -12 111 -14 161 -5 230
-15 332 -46 197 -61 268 -172 296 -463 9 -94 9 -5076 0 -5140 -4 -27 -8 -57
-8 -65 0 -8 -7 -44 -15 -80 -8 -36 -16 -72 -18 -80 -2 -8 -4 -15 -5 -15 -1 0
-3 -8 -5 -18 -2 -10 -11 -27 -19 -36 -9 -10 -16 -22 -16 -28 0 -6 -23 -32 -50
-57 -51 -45 -130 -82 -198 -92 -21 -3 -43 -7 -50 -9 -23 -8 -113 -15 -235 -19
-65 -3 -120 -6 -122 -8 -4 -4 -7 -47 -6 -81 1 -33 32 -48 73 -36 16 4 30 3 34
-2 3 -5 10 -7 15 -3 6 3 38 5 72 5 34 -1 83 -2 110 -3 26 -1 50 2 54 5 3 4 12
2 20 -4 9 -8 13 -8 13 -1 0 7 10 8 29 2 16 -4 32 -6 35 -3 3 3 31 5 63 4 124
-4 153 -4 160 2 3 4 12 2 20 -4 9 -8 13 -8 13 0 0 7 8 8 24 1 13 -5 26 -6 29
-3 3 3 34 4 69 4 35 -1 84 -2 111 -3 26 -1 50 2 54 5 3 4 12 2 20 -4 9 -8 13
-8 13 -1 0 7 10 8 28 3 15 -4 38 -5 52 -1 13 3 46 3 73 0 26 -4 50 -3 53 1 2
4 17 4 32 0 15 -4 39 -4 54 0 15 4 29 5 32 2 7 -7 115 -7 123 0 3 4 12 2 20
-4 8 -7 13 -7 13 -2 0 7 15 8 40 3 25 -5 40 -4 40 3 0 5 6 4 14 -2 9 -8 16 -8
20 -2 4 6 16 7 29 2 12 -5 31 -5 42 -1 11 4 29 4 40 0 11 -4 28 -4 39 -1 10 4
40 4 66 1 25 -3 58 -3 72 1 14 4 31 3 38 -1 7 -4 25 -4 40 0 15 4 33 4 40 0 7
-4 25 -4 40 0 15 4 33 4 40 0 7 -4 24 -5 39 -1 14 4 37 6 51 4 22 -2 38 -3
103 -2 6 0 38 -1 70 -2 31 -1 60 1 64 4 3 4 12 2 20 -4 8 -7 13 -7 13 -2 0 7
15 8 40 3 25 -5 40 -4 40 3 0 5 6 4 14 -2 9 -8 16 -8 20 -2 4 6 16 7 29 2 12
-5 31 -5 42 -1 11 4 29 4 40 0 11 -4 28 -4 39 -1 10 4 40 4 66 1 25 -3 58 -3
72 1 14 4 31 3 38 -1 7 -4 25 -4 40 0 15 4 33 4 40 0 7 -4 25 -4 40 0 15 4 33
4 40 0 7 -4 24 -5 39 -1 14 4 37 6 51 4 22 -2 38 -3 103 -2 6 0 38 -1 70 -2
31 -1 60 1 64 4 3 4 12 2 20 -4 8 -7 13 -7 13 -2 0 7 15 8 40 3 25 -5 40 -4
40 3 0 5 6 4 14 -2 9 -8 16 -8 20 -2 4 6 16 7 29 2 12 -5 31 -5 42 -1 11 4 29
4 40 0 11 -4 28 -5 37 -1 9 3 54 4 99 1 44 -3 83 -1 86 3 3 4 11 3 19 -4 10
-8 14 -8 14 0 0 7 8 8 24 1 13 -5 26 -6 29 -3 3 3 34 4 69 4 35 -1 84 -2 111
-3 26 -1 50 2 54 5 3 4 12 2 20 -4 9 -8 13 -8 13 -1 0 7 10 8 29 2 16 -4 32
-6 35 -3 3 3 31 5 63 4 124 -4 153 -4 160 2 3 4 12 2 20 -4 7 -6 13 -7 13 -2
0 6 21 7 50 3 28 -4 53 -3 56 2 3 5 9 6 14 3 7 -4 146 -9 160 -5 3 0 26 2 51
4 54 4 81 19 104 59 15 26 18 60 21 226 1 108 5 266 9 351 4 85 8 191 10 235
2 44 6 114 9 155 3 41 8 118 11 170 3 52 8 118 10 145 7 70 16 181 19 240 2
28 7 88 11 135 12 128 11 140 -9 140 -8 0 -16 4 -18 9 -1 6 -15 12 -31 15 -20
4 -30 -1 -39 -17 -7 -12 -13 -24 -13 -27 -7 -36 -19 -77 -25 -85 -5 -5 -9 -14
-9 -20 -1 -5 -9 -32 -18 -60 -10 -27 -18 -52 -18 -55 -11 -43 -118 -260 -128
-260 -6 0 -8 -3 -4 -6 6 -7 -54 -107 -110 -184 -18 -25 -37 -50 -41 -55 -82
-113 -245 -275 -382 -381 -325 -251 -756 -407 -1213 -440 -104 -8 -664 -8
-737 0 -30 3 -76 8 -103 10 -26 3 -56 10 -67 16 -11 6 -20 7 -20 3 0 -4 -5 -2
-12 5 -7 7 -19 12 -27 12 -19 0 -90 65 -110 99 -25 46 -37 93 -50 207 -9 86
-8 5135 2 5194 3 19 8 46 11 60 4 14 9 38 11 54 3 16 10 36 14 45 5 9 9 18 9
21 -1 3 8 23 20 46 70 137 235 199 560 208 57 2 105 6 109 9 8 9 12 69 6 94
l-5 23 -257 -5 c-141 -2 -326 -8 -411 -11 -219 -10 -1089 -10 -1310 0 -102 4
-280 9 -396 11 -116 1 -216 5 -221 8 -6 4 -17 1 -26 -6z"/>
</g>
</svg>
